<?xml version="1.0" standalone="no"?>
<!DOCTYPE svg PUBLIC "-//W3C//DTD SVG 20010904//EN"
 "http://www.w3.org/TR/2001/REC-SVG-20010904/DTD/svg10.dtd">
<svg version="1.0" xmlns="http://www.w3.org/2000/svg"
 width="768.000000pt" height="768.000000pt" viewBox="0 0 768.000000 768.000000"
 preserveAspectRatio="xMidYMid meet">
<metadata>
Created by potrace 1.11, written by Peter Selinger 2001-2013
</metadata>
<g transform="translate(0.000000,768.000000) scale(0.100000,-0.100000)"
fill="#000000" stroke="none">
<path d="M0 3840 l0 -3840 3840 0 3840 0 0 3840 0 3840 -3840 0 -3840 0 0
-3840z m1725 1763 c185 -484 639 -1670 902 -2358 151 -396 278 -726 282 -733
4 -8 133 296 311 733 l303 747 -103 266 c-57 147 -144 375 -195 507 -51 132
-154 398 -228 590 -75 193 -145 374 -156 403 l-21 52 308 0 308 0 15 -42 c9
-24 119 -329 244 -678 126 -349 232 -639 235 -643 4 -4 48 104 98 240 127 347
300 823 359 983 l49 135 302 3 c166 1 302 -2 302 -6 0 -5 -115 -310 -256 -678
-141 -368 -296 -773 -344 -901 l-89 -232 50 -123 c28 -68 106 -260 174 -428
68 -168 151 -372 185 -455 34 -82 91 -223 127 -312 36 -90 68 -163 72 -163 3
0 16 26 28 58 36 94 554 1453 801 2102 199 521 414 1085 437 1143 7 16 33 17
362 17 280 0 354 -3 350 -12 -8 -22 -483 -1173 -782 -1898 -358 -867 -603
-1460 -665 -1610 -26 -63 -89 -217 -140 -342 l-94 -228 -283 0 c-179 0 -283 4
-283 10 0 5 -84 211 -186 457 -102 247 -258 620 -345 831 -88 210 -171 412
-185 447 -26 64 -37 77 -47 53 -6 -15 -269 -646 -519 -1243 -100 -236 -192
-458 -206 -493 l-25 -62 -281 2 -280 3 -62 150 c-34 83 -125 305 -204 495 -78
190 -184 446 -235 570 -51 124 -168 407 -260 630 -92 223 -213 518 -270 655
-57 138 -158 383 -225 545 -200 483 -398 962 -414 1003 l-16 37 354 0 354 0
87 -227z"/>
</g>
</svg>
