<svg height="511pt" viewBox="-35 0 511 512" width="511pt" xmlns="http://www.w3.org/2000/svg">
  <path d="M280.504 239.996c-5.52 0-10 4.477-10 10 0 5.52 4.48 10 10 10s10-4.48 10-10c0-5.523-4.48-10-10-10zm0 0M160.504 259.996c5.52 0 10-4.48 10-10 0-5.523-4.48-10-10-10-5.524 0-10 4.477-10 10 0 5.52 4.476 10 10 10zm0 0"/>
  <path d="M7.383 189.648L.503 421.703c-.167 5.64 4.368 10.293 9.997 10.293h10V462c0 5.523 4.477 10 10 10h40v30c0 5.52 4.48 10 10 10h280.008c5.52 0 10-4.48 10-10v-30h40c5.523 0 10-4.477 10-10v-30.004h10c5.633 0 10.164-4.656 9.996-10.293l-6.883-232.07c-.805-25.781-10.5-50.735-27.305-70.258-13.55-15.746-31.265-27.469-50.84-33.855 4.97-14.114 1.325-29.047-.796-32.707-6.063-10.465-10.051-13-25.09-22.383-8.813-5.496-20.88-13.028-39.324-25.825C286.293 1.86 284.84.402 281.504.07c-1.285-.125-120.047-.043-121-.047-3.961-.007-5.785 1.832-9.774 4.59-18.5 12.836-31.07 20.672-39.39 25.86-14.774 9.215-20.3 12.664-25.16 23.242-4.696 10.18-4.914 21.547-.774 31.844-45.785 14.98-76.55 56.894-78.023 104.09zM40.5 431.996h30V452h-30zM350.508 452H230.504V351.996h34.367c10.957 35.785 41.793 59.887 85.637 59.992zm-140.004 0H90.5v-40.027c44.11-.106 74.746-24.41 85.637-59.977h34.367zM90.5 492v-20h260.008v20zm310.008-40h-30v-20.004h30zm13.125-261.758l6.574 221.754h-49.7V191.203c0-5.523-4.48-10-10-10-5.523 0-10 4.477-10 10v200.781c-35.812-.046-60.991-19.05-68.14-52.101a9.995 9.995 0 0 0-9.773-7.887h-42.09v-194.46l40-11.43v83.89c0 5.524 4.48 10 10 10 5.523 0 10-4.476 10-10v-89.605c34.918-10.641 42.785-10.524 52.39-17.68 39.981 9.906 69.442 45.984 70.739 87.531zM168.253 19.988h104.5c6.813 0 11.657 6.672 9.524 13.078-.43.825-14.46 50.368-61.777 84.746a170.132 170.132 0 0 1-35.29-34.43c-18.808-24.628-24.75-46.241-26.448-50.23-2.149-6.441 2.62-13.164 9.492-13.164zm169.028 43.239c.899 4.066 2.04 15.07-4.324 21.707-5.789 6.02-10.469 4.765-71.687 23.007 29.406-32.406 37.917-63.992 39.953-68.472.316-.95.566-1.903.785-2.86C309 41.156 314.594 44.65 319 47.4c18.43 11.496 14.727 10.171 18.281 15.828zm-232.933-1.149c2.207-4.808 3.359-5.766 17.578-14.633 4.426-2.761 10.047-6.27 17.078-10.843 3.566 15.68 18.598 47.027 40.648 71.316-62.25-18.637-64.886-16.508-71.347-23.137-5.711-5.808-7.621-14.761-3.957-22.703zm-5.938 40.563c9.89 7.515 16.063 6.714 52.09 17.75v89.601c0 5.524 4.48 10 10 10 5.523 0 10-4.476 10-10v-83.887l40.004 11.43v194.461H168.41a10.002 10.002 0 0 0-9.773 7.887c-7.145 33.05-32.325 52.05-68.137 52.097V191.203c0-5.523-4.477-10-10-10s-10 4.477-10 10v220.793H20.8l6.575-221.742c1.3-41.707 30.883-77.82 71.035-87.613zm0 0"/>
</svg>
