<svg viewBox="0 0 512.002 512.002" xmlns="http://www.w3.org/2000/svg"><path d="m201.531 195.3a10.043 10.043 0 0 0 -7.06-2.92c-2.64 0-5.22 1.06-7.08 2.92-1.86 1.87-2.93 4.45-2.93 7.08s1.069 5.2 2.93 7.07a10.1 10.1 0 0 0 7.08 2.93c2.63 0 5.2-1.07 7.06-2.93a10.034 10.034 0 0 0 2.931-7.07c0-2.64-1.061-5.21-2.931-7.08zm123.079.01a10.035 10.035 0 0 0 -7.08-2.93c-2.63 0-5.21 1.06-7.069 2.93-1.86 1.85-2.92 4.43-2.92 7.07 0 2.63 1.06 5.21 2.92 7.07a10.091 10.091 0 0 0 7.069 2.93c2.641 0 5.211-1.07 7.08-2.93 1.86-1.86 2.92-4.44 2.92-7.07 0-2.64-1.06-5.22-2.92-7.07z"/><path d="m511.874 432.436-48.804-303.543c-3.729-23.193-18.719-42.854-40.097-52.591l-37.972-17.296a9.975 9.975 0 0 0 .984-3.766 10.001 10.001 0 0 0 -3.809-8.426l-56.905-44.679-.004.008a9.99 9.99 0 0 0 -6.171-2.143h-126.189c-2.453 0-4.76.911-6.549 2.465l-56.485 44.348a10.001 10.001 0 0 0 -3.809 8.424 9.975 9.975 0 0 0 .975 3.751l-38.01 17.313c-21.379 9.738-36.369 29.398-40.097 52.592l-48.804 303.543a10 10 0 0 0 7.367 11.269l54 13.977a9.99 9.99 0 0 0 7.91-1.267 9.996 9.996 0 0 0 4.441-6.667l22.154-124.84v177.093c0 5.523 4.478 10 10 10h300c5.522 0 10-4.477 10-10v-177.093l22.154 124.84a10 10 0 0 0 12.351 7.934l54-13.977a10 10 0 0 0 7.369-11.269zm-212.07-412.436-43.747 62.02-43.836-62.02zm-63.804 472h-120v-66h86.017c5.522 0 10-4.477 10-10v-106.016c0-5.523-4.478-10-10-10h-86.016v-115.784c0-5.523-4.478-10-10-10s-10 4.477-10 10v26.251l-39.958 225.16-34.724-8.987 47.358-294.556a49.89 49.89 0 0 1 28.642-37.565l48.438-22.063 38.708 23.938v71.425c0 5.523 4.478 10 10 10s10-4.477 10-10v-59.057l31.535 19.501zm-43.983-130v44h-76.016v-44zm-76.016-20v-22.016h76.016v22.016zm37.483-288.296 37.344-29.32 57.07 80.745a10.001 10.001 0 0 0 8.166 4.228h.003a10 10 0 0 0 8.169-4.236l56.963-80.755 37.361 29.334-102.586 63.384zm242.517 288.296h-76.016v-22.016h76.016zm0 20v44h-76.016v-44zm59.958 73.611-39.958-225.16v-26.251c0-5.523-4.478-10-10-10s-10 4.477-10 10v115.784h-86.016c-5.522 0-10 4.477-10 10v106.016c0 5.523 4.478 10 10 10h86.016v66h-140v-351.424l4.655-2.876a9.884 9.884 0 0 0 1.245-.769l45.635-28.196v59.068c0 5.523 4.478 10 10 10s10-4.477 10-10v-71.425l38.729-23.929 48.419 22.053a49.89 49.89 0 0 1 28.641 37.565l47.358 294.556z"/><path d="m273.508 413.935c-5.522 0-10 4.477-10 10v.266c0 5.523 4.478 10 10 10s10-4.477 10-10v-.266c0-5.523-4.478-10-10-10zm0-79.912c-5.522 0-10 4.477-10 10v.266c0 5.523 4.478 10 10 10s10-4.477 10-10v-.266c0-5.523-4.478-10-10-10zm0-79.912c-5.522 0-10 4.477-10 10v.266c0 5.523 4.478 10 10 10s10-4.477 10-10v-.266c0-5.523-4.478-10-10-10zm0-79.911c-5.522 0-10 4.477-10 10v.266c0 5.523 4.478 10 10 10s10-4.477 10-10v-.266c0-5.523-4.478-10-10-10zm91.552 149.4a10.029 10.029 0 0 0 -7.069-2.93 10.03 10.03 0 0 0 -7.07 2.93 10.058 10.058 0 0 0 -2.93 7.07c0 2.63 1.069 5.2 2.93 7.07a10.072 10.072 0 0 0 7.07 2.93c2.64 0 5.21-1.07 7.069-2.93a10.094 10.094 0 0 0 2.931-7.07c0-2.64-1.07-5.21-2.931-7.07zm-202-.01a10.062 10.062 0 0 0 -7.069-2.92c-2.631 0-5.211 1.06-7.07 2.92a10.1 10.1 0 0 0 -2.93 7.08c0 2.63 1.069 5.21 2.93 7.07a10.072 10.072 0 0 0 7.07 2.93c2.63 0 5.21-1.07 7.069-2.93a10.094 10.094 0 0 0 2.931-7.07c0-2.64-1.07-5.21-2.931-7.08z"/></svg>