<svg xmlns="http://www.w3.org/2000/svg" viewBox="0 0 512.001 512.001">
  <path d="M470.424 495.014c-.084-.45-.162-.895-.245-1.344-.373-2.012-.74-4.028-1.097-6.052-.091-.512-.176-1.021-.265-1.533a721.11 721.11 0 0 1-.985-5.793c-.107-.649-.21-1.294-.316-1.94a667.718 667.718 0 0 1-.824-5.198c-20.45-132.538 4.734-227.434 5.008-228.441a8.11 8.11 0 0 0-4.658-9.609c-30.183-12.78-48.424-47.115-54.216-102.052-.47-4.453-4.476-7.689-8.913-7.212a8.107 8.107 0 0 0-7.213 8.913c6.074 57.598 25.486 95.333 57.742 112.308-2.474 10.899-7.181 34.766-9.936 68.731-2.87 35.364-3.934 87.659 4.625 149.329H174.777a8.106 8.106 0 0 0-8.107 8.107 8.107 8.107 0 0 0 8.107 8.107h276.792l.04.237c.764 4.691 1.585 9.43 2.466 14.215H57.927a703.728 703.728 0 0 0 2.485-14.331l.021-.12h86.241a8.107 8.107 0 0 0 8.107-8.107 8.106 8.106 0 0 0-8.107-8.107H62.87c8.56-61.67 7.497-113.964 4.627-149.329-2.756-33.972-7.464-57.839-9.938-68.737 19.603-10.352 34.6-28.592 44.633-54.318 8.532-21.873 13.506-49.269 14.782-81.426 1.611-40.601-3.006-78.056-5.575-95.096h20.708V64.91c0 68.316 55.579 123.895 123.895 123.895S379.897 133.226 379.897 64.91V16.214h20.709c-2.468 16.384-6.831 51.648-5.733 90.454a8.107 8.107 0 0 0 8.334 7.875 8.108 8.108 0 0 0 7.875-8.333c-1.428-50.479 6.957-96.162 7.043-96.617a8.112 8.112 0 0 0-1.734-6.666A8.118 8.118 0 0 0 410.153 0H371.79a8.107 8.107 0 0 0-8.107 8.107v36.17c0 16.826-10.71 32.914-30.159 45.3-20.584 13.108-48.115 20.326-77.522 20.326-29.406 0-56.937-7.219-77.52-20.326-19.449-12.385-30.16-28.473-30.16-45.3V8.107A8.107 8.107 0 0 0 140.215 0H101.85a8.105 8.105 0 0 0-6.236 2.927 8.113 8.113 0 0 0-1.734 6.669c.091.482 8.968 48.757 6.891 101.071-1.857 46.772-13.046 106.327-55.811 124.434a8.108 8.108 0 0 0-4.659 9.609c.277 1.006 25.451 95.469 5.083 227.969a727.964 727.964 0 0 1-1.005 6.341c-.053.323-.104.646-.158.971-.37 2.243-.75 4.481-1.14 6.71l-.133.773a682.46 682.46 0 0 1-1.204 6.643c-.053.285-.103.569-.157.855a693.202 693.202 0 0 1-1.416 7.34 8.106 8.106 0 0 0 7.951 9.69h415.763a8.104 8.104 0 0 0 7.949-9.69 664.75 664.75 0 0 1-1.41-7.298zm-300.653-391.76c23.154 14.744 53.778 22.864 86.231 22.864 32.453 0 63.077-8.12 86.23-22.864 7.354-4.684 13.708-9.867 18.992-15.448l-.081.37a105.994 105.994 0 0 1-.948 3.948c-.046.179-.097.357-.145.536a104.271 104.271 0 0 1-1.107 3.864c-.028.09-.053.181-.081.27a108.455 108.455 0 0 1-1.287 3.861c-.082.233-.163.468-.248.702a109.904 109.904 0 0 1-1.394 3.653c-.099.247-.201.493-.303.739a106.827 106.827 0 0 1-1.564 3.623c-.075.164-.154.325-.229.49a108.847 108.847 0 0 1-1.644 3.405c-.078.154-.152.31-.23.464a105.966 105.966 0 0 1-1.844 3.441c-.136.244-.271.489-.41.731a105.145 105.145 0 0 1-1.937 3.277c-.144.234-.291.466-.437.698a106.795 106.795 0 0 1-2.122 3.269c-.088.13-.179.256-.268.386a107.888 107.888 0 0 1-2.133 3.005c-.134.183-.266.368-.401.55a109.63 109.63 0 0 1-2.886 3.7c-.792.974-1.601 1.934-2.427 2.88-.178.204-.359.404-.539.607a106.78 106.78 0 0 1-2.631 2.872l-.228.235a107.08 107.08 0 0 1-2.647 2.66c-.182.176-.361.356-.544.531a106.87 106.87 0 0 1-2.774 2.566c-.221.198-.442.393-.665.59-.947.833-1.907 1.654-2.883 2.455-.19.157-.384.309-.576.464-.975.788-1.961 1.563-2.963 2.318l-.255.196c-1.05.786-2.119 1.547-3.198 2.294-.216.15-.431.302-.649.45a104.77 104.77 0 0 1-3.903 2.539 106.559 106.559 0 0 1-3.314 1.982c-.178.102-.359.2-.538.302-1.094.618-2.2 1.219-3.318 1.8-.13.067-.258.138-.388.205a106.89 106.89 0 0 1-3.55 1.737c-.24.112-.48.226-.721.337a107.812 107.812 0 0 1-3.548 1.553c-.244.102-.49.201-.734.3a104.92 104.92 0 0 1-3.716 1.442c-.142.052-.284.099-.426.15a107.2 107.2 0 0 1-3.687 1.252c-.163.052-.325.108-.49.159-1.274.4-2.561.773-3.856 1.126l-.76.206c-1.281.341-2.572.658-3.871.951-.235.053-.471.103-.707.155-1.351.295-2.709.572-4.078.816-.083.015-.167.027-.25.041-1.341.236-2.694.443-4.051.628-.196.027-.39.056-.586.082-1.357.177-2.721.325-4.093.452-.263.024-.525.048-.789.07-1.368.116-2.745.209-4.127.273-.222.011-.445.016-.667.025-1.454.058-2.913.096-4.381.096-1.468 0-2.927-.038-4.381-.096-.223-.009-.445-.015-.668-.026-1.384-.064-2.76-.157-4.13-.273-.262-.023-.522-.045-.783-.07-1.373-.126-2.74-.275-4.098-.453-.195-.025-.387-.055-.581-.081-1.36-.186-2.713-.393-4.056-.629l-.249-.041c-1.37-.244-2.726-.521-4.077-.816-.236-.052-.472-.102-.708-.155-1.3-.293-2.591-.612-3.872-.951l-.756-.204a105.701 105.701 0 0 1-3.86-1.128c-.162-.051-.322-.106-.483-.157a105.827 105.827 0 0 1-3.7-1.256c-.138-.05-.278-.096-.415-.146a105.858 105.858 0 0 1-3.725-1.445l-.724-.296a105.318 105.318 0 0 1-3.556-1.557c-.238-.109-.475-.222-.711-.333a107.424 107.424 0 0 1-3.559-1.741c-.126-.065-.25-.133-.376-.199a110.208 110.208 0 0 1-3.333-1.808c-.175-.099-.352-.196-.528-.295a106.893 106.893 0 0 1-4.036-2.433 104.276 104.276 0 0 1-3.191-2.095c-.213-.145-.424-.294-.635-.441a110.395 110.395 0 0 1-3.212-2.305c-.078-.058-.155-.12-.232-.178a109.104 109.104 0 0 1-2.99-2.339c-.186-.15-.374-.299-.56-.451a104.962 104.962 0 0 1-3.544-3.041 109.625 109.625 0 0 1-2.788-2.579c-.177-.171-.351-.344-.528-.516a109.057 109.057 0 0 1-2.671-2.685l-.199-.203c-.905-.949-1.787-1.92-2.657-2.9-.174-.196-.349-.39-.521-.587-.83-.95-1.643-1.917-2.441-2.896-.182-.223-.361-.448-.542-.672a109.024 109.024 0 0 1-2.344-3.027c-.13-.174-.254-.35-.383-.524a110.634 110.634 0 0 1-2.16-3.043c-.082-.12-.168-.238-.249-.359a109.161 109.161 0 0 1-2.133-3.286c-.142-.227-.285-.453-.425-.681a107.427 107.427 0 0 1-1.947-3.294c-.134-.237-.266-.475-.399-.712a108.077 108.077 0 0 1-1.853-3.458c-.075-.146-.146-.295-.219-.442a106.387 106.387 0 0 1-1.658-3.435c-.072-.157-.148-.311-.219-.469-.546-1.2-1.066-2.414-1.57-3.636-.099-.242-.199-.483-.297-.726a104.986 104.986 0 0 1-1.401-3.668c-.081-.226-.16-.453-.24-.68a106.285 106.285 0 0 1-1.294-3.881l-.073-.245a105.839 105.839 0 0 1-1.115-3.893c-.046-.174-.096-.347-.142-.521a103.803 103.803 0 0 1-1.029-4.323c5.292 5.581 11.646 10.765 19 15.449z"/>
</svg>
